#N canvas -60 23 1280 701 10;
#X obj 54 84 osc~;
#X obj 183 82 osc~;
#X obj 97 84 osc~;
#X obj 140 83 osc~;
#X obj 11 114 *~ 0.9;
#X obj 54 114 *~ 0.7;
#X obj 97 114 *~ 0.5;
#X obj 140 114 *~ 0.3;
#X obj 183 114 *~ 0.1;
#X obj 11 84 osc~;
#X obj 136 266 *~;
#X obj 160 238 line~;
#X text 321 152 on;
#X text 318 181 off;
#X text 217 235 envelope;
#X text 217 248 generator;
#X obj 597 471 dac~ 1 2;
#X obj 251 56 random 20000;
#X obj 251 15 tgl 15 0 empty empty empty 17 7 0 10 -262144 -1 -1 1
1;
#X obj 251 35 metro 2000;
#X floatatom 251 102 5 0 0 0 - - -, f 5;
#X obj 412 48 f;
#X obj 443 49 + 1;
#X obj 412 69 % 2;
#X floatatom 412 90 5 0 0 0 - - -, f 5;
#X obj 412 108 sel 0 1;
#X msg 269 182 0 \$1;
#X obj 343 116 spigot;
#X obj 397 154 spigot;
#X obj 430 133 tgl 15 0 empty empty empty 17 7 0 10 -262144 -1 -1 0
1;
#X obj 377 96 tgl 15 0 empty empty empty 17 7 0 10 -262144 -1 -1 1
1;
#X obj 373 14 loadbang;
#X obj 537 81 osc~;
#X obj 666 79 osc~;
#X obj 580 81 osc~;
#X obj 623 80 osc~;
#X obj 494 111 *~ 0.9;
#X obj 537 111 *~ 0.7;
#X obj 580 111 *~ 0.5;
#X obj 623 111 *~ 0.3;
#X obj 666 111 *~ 0.1;
#X obj 494 81 osc~;
#X obj 619 263 *~;
#X obj 643 235 line~;
#X text 804 149 on;
#X text 801 178 off;
#X text 700 232 envelope;
#X text 700 245 generator;
#X obj 734 53 random 20000;
#X obj 734 12 tgl 15 0 empty empty empty 17 7 0 10 -262144 -1 -1 1
1;
#X obj 734 32 metro 2000;
#X floatatom 734 99 5 0 0 0 - - -, f 5;
#X obj 895 45 f;
#X obj 926 46 + 1;
#X obj 895 66 % 2;
#X floatatom 895 87 5 0 0 0 - - -, f 5;
#X obj 895 105 sel 0 1;
#X msg 752 179 0 \$1;
#X obj 826 113 spigot;
#X obj 880 151 spigot;
#X obj 913 130 tgl 15 0 empty empty empty 17 7 0 10 -262144 -1 -1 1
1;
#X obj 860 93 tgl 15 0 empty empty empty 17 7 0 10 -262144 -1 -1 0
1;
#X obj 856 11 loadbang;
#X obj 859 279 osc~;
#X obj 988 277 osc~;
#X obj 902 279 osc~;
#X obj 945 278 osc~;
#X obj 816 309 *~ 0.9;
#X obj 859 309 *~ 0.7;
#X obj 902 309 *~ 0.5;
#X obj 945 309 *~ 0.3;
#X obj 988 309 *~ 0.1;
#X obj 816 279 osc~;
#X obj 941 461 *~;
#X obj 965 433 line~;
#X text 1126 347 on;
#X text 1123 376 off;
#X text 1022 430 envelope;
#X text 1022 443 generator;
#X obj 1056 251 random 20000;
#X obj 1056 210 tgl 15 0 empty empty empty 17 7 0 10 -262144 -1 -1
1 1;
#X obj 1056 230 metro 2000;
#X floatatom 1056 297 5 0 0 0 - - -, f 5;
#X obj 1217 243 f;
#X obj 1248 244 + 1;
#X obj 1217 264 % 2;
#X floatatom 1217 285 5 0 0 0 - - -, f 5;
#X obj 1217 303 sel 0 1;
#X msg 1074 377 0 \$1;
#X obj 1148 311 spigot;
#X obj 1202 349 spigot;
#X obj 1235 328 tgl 15 0 empty empty empty 17 7 0 10 -262144 -1 -1
0 1;
#X obj 1182 291 tgl 15 0 empty empty empty 17 7 0 10 -262144 -1 -1
1 1;
#X obj 1178 209 loadbang;
#X msg 251 157 0.2 \$1;
#X msg 734 154 0.2 \$1;
#X msg 1056 352 0.2 \$1;
#X msg 183 58 4978;
#X msg 902 253 784;
#X msg 945 254 3136;
#X obj 619 441 lop~ 200;
#X msg 140 59 2538;
#X msg 11 58 261.6;
#X obj 251 78 + 2000;
#X obj 734 75 + 2000;
#X obj 1056 273 + 2000;
#X msg 54 59 523.3;
#X msg 97 58 784;
#X msg 494 55 329.6;
#X msg 537 56 659.3;
#X msg 580 55 1318.5;
#X msg 623 56 2637;
#X msg 666 55 5274;
#X msg 816 253 392;
#X msg 859 254 196;
#X msg 988 253 1568;
#X obj 619 410 *~ 1;
#X connect 0 0 5 0;
#X connect 1 0 8 0;
#X connect 2 0 6 0;
#X connect 3 0 7 0;
#X connect 4 0 10 0;
#X connect 5 0 10 0;
#X connect 6 0 10 0;
#X connect 7 0 10 0;
#X connect 8 0 10 0;
#X connect 9 0 4 0;
#X connect 10 0 116 0;
#X connect 11 0 10 1;
#X connect 17 0 103 0;
#X connect 18 0 19 0;
#X connect 19 0 17 0;
#X connect 19 0 21 0;
#X connect 20 0 19 1;
#X connect 20 0 27 0;
#X connect 20 0 28 0;
#X connect 21 0 22 0;
#X connect 21 0 23 0;
#X connect 22 0 21 1;
#X connect 23 0 24 0;
#X connect 24 0 25 0;
#X connect 25 0 30 0;
#X connect 25 0 29 0;
#X connect 25 1 29 0;
#X connect 25 1 30 0;
#X connect 26 0 11 0;
#X connect 27 0 94 0;
#X connect 28 0 26 0;
#X connect 29 0 28 1;
#X connect 30 0 27 1;
#X connect 31 0 30 0;
#X connect 31 0 18 0;
#X connect 31 0 106 0;
#X connect 31 0 107 0;
#X connect 31 0 101 0;
#X connect 31 0 97 0;
#X connect 31 0 102 0;
#X connect 32 0 37 0;
#X connect 33 0 40 0;
#X connect 34 0 38 0;
#X connect 35 0 39 0;
#X connect 36 0 42 0;
#X connect 37 0 42 0;
#X connect 38 0 42 0;
#X connect 39 0 42 0;
#X connect 40 0 42 0;
#X connect 41 0 36 0;
#X connect 42 0 116 0;
#X connect 43 0 42 1;
#X connect 48 0 104 0;
#X connect 49 0 50 0;
#X connect 50 0 48 0;
#X connect 50 0 52 0;
#X connect 51 0 50 1;
#X connect 51 0 58 0;
#X connect 51 0 59 0;
#X connect 52 0 53 0;
#X connect 52 0 54 0;
#X connect 53 0 52 1;
#X connect 54 0 55 0;
#X connect 55 0 56 0;
#X connect 56 0 61 0;
#X connect 56 0 60 0;
#X connect 56 1 60 0;
#X connect 56 1 61 0;
#X connect 57 0 43 0;
#X connect 58 0 95 0;
#X connect 59 0 57 0;
#X connect 60 0 59 1;
#X connect 61 0 58 1;
#X connect 62 0 61 0;
#X connect 62 0 49 0;
#X connect 62 0 108 0;
#X connect 62 0 109 0;
#X connect 62 0 110 0;
#X connect 62 0 111 0;
#X connect 62 0 112 0;
#X connect 63 0 68 0;
#X connect 64 0 71 0;
#X connect 65 0 69 0;
#X connect 66 0 70 0;
#X connect 67 0 73 0;
#X connect 68 0 73 0;
#X connect 69 0 73 0;
#X connect 70 0 73 0;
#X connect 71 0 73 0;
#X connect 72 0 67 0;
#X connect 73 0 116 0;
#X connect 74 0 73 1;
#X connect 79 0 105 0;
#X connect 80 0 81 0;
#X connect 81 0 79 0;
#X connect 81 0 83 0;
#X connect 82 0 81 1;
#X connect 82 0 89 0;
#X connect 82 0 90 0;
#X connect 83 0 84 0;
#X connect 83 0 85 0;
#X connect 84 0 83 1;
#X connect 85 0 86 0;
#X connect 86 0 87 0;
#X connect 87 0 92 0;
#X connect 87 0 91 0;
#X connect 87 1 91 0;
#X connect 87 1 92 0;
#X connect 88 0 74 0;
#X connect 89 0 96 0;
#X connect 90 0 88 0;
#X connect 91 0 90 1;
#X connect 92 0 89 1;
#X connect 93 0 92 0;
#X connect 93 0 80 0;
#X connect 93 0 113 0;
#X connect 93 0 98 0;
#X connect 93 0 99 0;
#X connect 93 0 115 0;
#X connect 93 0 114 0;
#X connect 94 0 11 0;
#X connect 95 0 43 0;
#X connect 96 0 74 0;
#X connect 97 0 1 0;
#X connect 98 0 65 0;
#X connect 99 0 66 0;
#X connect 100 0 16 0;
#X connect 100 0 16 1;
#X connect 101 0 3 0;
#X connect 102 0 9 0;
#X connect 103 0 20 0;
#X connect 104 0 51 0;
#X connect 105 0 82 0;
#X connect 106 0 0 0;
#X connect 107 0 2 0;
#X connect 108 0 41 0;
#X connect 109 0 32 0;
#X connect 110 0 34 0;
#X connect 111 0 35 0;
#X connect 112 0 33 0;
#X connect 113 0 72 0;
#X connect 114 0 63 0;
#X connect 115 0 64 0;
#X connect 116 0 100 0;
