#N canvas 0 22 1264 668 10;
#N canvas 12 23 1055 697 soundfiles 0;
#X obj 29 188 soundfiler;
#X floatatom 29 214 20 0 0 0 - - -;
#X obj 184 264 samplerate~;
#X obj 121 288 /;
#X obj 121 311 * 1000;
#X obj 121 364 metro;
#X obj 121 477 line~;
#X obj 121 336 trigger bang float;
#X obj 121 390 trigger bang bang;
#X msg 220 416 0;
#X obj 100 442 pack float float;
#X obj 121 416 float;
#X obj 8 -6 loadbang;
#X obj 29 240 print LOADED;
#X obj 114 240 trigger float bang float;
#X obj 268 177 soundfiler;
#X obj 108 187 table ONE 100;
#X obj 121 501 tabread~ ONE;
#X obj 347 176 table TWO 100;
#X floatatom 269 211 20 0 0 0 - - -;
#X obj 269 240 print LOADED2;
#X obj 429 263 samplerate~;
#X obj 366 287 /;
#X obj 366 310 * 1000;
#X obj 366 363 metro;
#X obj 366 476 line~;
#X obj 366 335 trigger bang float;
#X obj 366 389 trigger bang bang;
#X msg 485 424 0;
#X obj 345 441 pack float float;
#X obj 366 415 float;
#X obj 359 239 trigger float bang float;
#X obj 366 500 tabread~ TWO;
#X obj 464 15 receive send4;
#X msg 170 525 1;
#X msg 385 524 0;
#X msg 418 524 1;
#X obj 395 588 line~;
#X msg 390 562 \$1 1500;
#X obj 363 605 *~;
#X obj 515 174 soundfiler;
#X floatatom 516 208 20 0 0 0 - - -;
#X obj 676 260 samplerate~;
#X obj 613 284 /;
#X obj 613 307 * 1000;
#X obj 613 360 metro;
#X obj 613 473 line~;
#X obj 613 332 trigger bang float;
#X obj 613 386 trigger bang bang;
#X msg 732 421 0;
#X obj 592 438 pack float float;
#X obj 613 412 float;
#X obj 606 236 trigger float bang float;
#X msg 632 521 0;
#X msg 665 521 1;
#X obj 642 585 line~;
#X msg 637 559 \$1 1500;
#X obj 610 602 *~;
#X obj 613 497 tabread~ THREE;
#X obj 594 173 table THREE 100;
#X obj 516 237 print LOADED3;
#X obj 167 589 line~;
#X obj 135 606 *~;
#X msg 162 563 \$1 3000;
#X obj 131 644 outlet~;
#X obj 360 642 outlet~;
#X obj 605 638 outlet~;
#X obj 464 37 sel 0 1 2 3;
#X msg 5 104 read -resize sounds/AR/layer1.mp3 ONE;
#X msg 142 123 read -resize sounds/AR/layer2.mp3 TWO;
#X msg 343 147 read -resize sounds/AR/layer3.mp3 THREE;
#X msg 202 525 0.4;
#X msg 235 524 0;
#X connect 0 0 1 0;
#X connect 1 0 13 0;
#X connect 1 0 14 0;
#X connect 2 0 3 1;
#X connect 3 0 4 0;
#X connect 4 0 7 0;
#X connect 5 0 8 0;
#X connect 6 0 17 0;
#X connect 7 0 5 0;
#X connect 7 1 5 1;
#X connect 7 1 10 1;
#X connect 8 0 11 0;
#X connect 8 1 9 0;
#X connect 9 0 6 0;
#X connect 10 0 6 0;
#X connect 11 0 10 0;
#X connect 12 0 68 0;
#X connect 12 0 34 0;
#X connect 12 0 69 0;
#X connect 12 0 70 0;
#X connect 14 0 3 0;
#X connect 14 1 2 0;
#X connect 14 2 11 1;
#X connect 15 0 19 0;
#X connect 17 0 62 0;
#X connect 19 0 20 0;
#X connect 19 0 31 0;
#X connect 21 0 22 1;
#X connect 22 0 23 0;
#X connect 23 0 26 0;
#X connect 24 0 27 0;
#X connect 25 0 32 0;
#X connect 26 0 24 0;
#X connect 26 1 24 1;
#X connect 26 1 29 1;
#X connect 27 0 30 0;
#X connect 27 1 28 0;
#X connect 28 0 25 0;
#X connect 29 0 25 0;
#X connect 30 0 29 0;
#X connect 31 0 22 0;
#X connect 31 1 21 0;
#X connect 31 2 30 1;
#X connect 32 0 39 0;
#X connect 33 0 67 0;
#X connect 34 0 63 0;
#X connect 35 0 38 0;
#X connect 36 0 38 0;
#X connect 37 0 39 1;
#X connect 38 0 37 0;
#X connect 39 0 65 0;
#X connect 40 0 41 0;
#X connect 41 0 52 0;
#X connect 41 0 60 0;
#X connect 42 0 43 1;
#X connect 43 0 44 0;
#X connect 44 0 47 0;
#X connect 45 0 48 0;
#X connect 46 0 58 0;
#X connect 47 0 45 0;
#X connect 47 1 45 1;
#X connect 47 1 50 1;
#X connect 48 0 51 0;
#X connect 48 1 49 0;
#X connect 49 0 46 0;
#X connect 50 0 46 0;
#X connect 51 0 50 0;
#X connect 52 0 43 0;
#X connect 52 1 42 0;
#X connect 52 2 51 1;
#X connect 53 0 56 0;
#X connect 54 0 56 0;
#X connect 55 0 57 1;
#X connect 56 0 55 0;
#X connect 57 0 66 0;
#X connect 58 0 57 0;
#X connect 61 0 62 1;
#X connect 62 0 64 0;
#X connect 63 0 61 0;
#X connect 67 0 53 0;
#X connect 67 0 35 0;
#X connect 67 0 34 0;
#X connect 67 1 71 0;
#X connect 67 1 36 0;
#X connect 67 2 35 0;
#X connect 67 2 54 0;
#X connect 67 2 72 0;
#X connect 68 0 0 0;
#X connect 69 0 15 0;
#X connect 70 0 40 0;
#X connect 71 0 63 0;
#X connect 72 0 63 0;
#X restore 134 519 pd soundfiles;
#N canvas 12 23 1095 666 soundfilesinbetween 0;
#X obj -841 -79 receive send6;
#X obj -841 -56 sel 0 1 2 3;
#X obj -731 -79 receive send5;
#X obj -731 -55 sel 0;
#X obj -1141 38 soundfiler;
#X floatatom -1141 64 20 0 0 0 - - -;
#X obj -986 114 samplerate~;
#X obj -1049 138 /;
#X obj -1049 161 * 1000;
#X obj -1049 214 metro;
#X obj -1049 327 line~;
#X obj -1049 186 trigger bang float;
#X obj -1049 240 trigger bang bang;
#X msg -950 266 0;
#X obj -1070 292 pack float float;
#X obj -1049 266 float;
#X obj -1056 90 trigger float bang float;
#X obj -902 27 soundfiler;
#X floatatom -901 61 20 0 0 0 - - -;
#X obj -741 113 samplerate~;
#X obj -804 137 /;
#X obj -804 160 * 1000;
#X obj -804 213 metro;
#X obj -804 326 line~;
#X obj -804 185 trigger bang float;
#X obj -804 239 trigger bang bang;
#X msg -685 274 0;
#X obj -825 291 pack float float;
#X obj -804 265 float;
#X obj -811 89 trigger float bang float;
#X msg -1033 375 0;
#X msg -1000 375 1;
#X msg -785 374 0;
#X obj -775 438 line~;
#X obj -655 24 soundfiler;
#X floatatom -654 58 20 0 0 0 - - -;
#X obj -494 110 samplerate~;
#X obj -557 134 /;
#X obj -557 157 * 1000;
#X obj -557 210 metro;
#X obj -557 323 line~;
#X obj -557 182 trigger bang float;
#X obj -557 236 trigger bang bang;
#X msg -438 271 0;
#X obj -578 288 pack float float;
#X obj -557 262 float;
#X obj -564 86 trigger float bang float;
#X msg -538 371 0;
#X msg -505 371 1;
#X obj -528 435 line~;
#X msg -533 409 \$1 1500;
#X obj -402 22 soundfiler;
#X floatatom -401 56 20 0 0 0 - - -;
#X obj -241 108 samplerate~;
#X obj -304 132 /;
#X obj -304 155 * 1000;
#X obj -304 208 metro;
#X obj -304 321 line~;
#X obj -304 180 trigger bang float;
#X obj -304 234 trigger bang bang;
#X msg -213 286 0;
#X obj -325 286 pack float float;
#X obj -304 260 float;
#X obj -311 84 trigger float bang float;
#X msg -285 369 0;
#X msg -252 369 1;
#X obj -275 433 line~;
#X obj -1003 439 line~;
#X obj -1062 37 table FIVE 100;
#X obj -823 26 table SIX 100;
#X obj -576 23 table SEVERN 100;
#X obj -323 21 table EIGHT 100;
#X obj -304 345 tabread~ EIGHT;
#X obj -557 347 tabread~ SEVERN;
#X obj -804 350 tabread~ SIX;
#X obj -1049 351 tabread~ FIVE;
#X obj -790 477 *~;
#X obj -543 474 *~;
#X obj -290 472 *~;
#X obj -1018 478 *~;
#X obj -1141 90 print LOADED5;
#X obj -901 90 print LOADED6;
#X obj -654 87 print LOADED7;
#X obj -401 85 print LOADED8;
#X msg -693 -22 read -resize sounds/ChildMigrationShort.mp3 SEVERN
;
#X msg -388 -45 read -resize sounds/NowView.mp3 EIGHT;
#X msg -280 407 \$1 3000;
#X msg -752 374 2;
#X msg -780 412 \$1 3000;
#X msg -902 -1 read -resize sounds/SlaveryView.mp3 SIX;
#X msg -1008 413 \$1 3000;
#X obj -1025 527 outlet~;
#X obj -794 527 outlet~;
#X obj -550 532 outlet~;
#X obj -319 532 outlet~;
#X obj -1146 -64 loadbang;
#X obj -1146 -38 delay 5000;
#X msg -1160 -2 read -resize sounds/AR/gazeSpot1.mp3 FIVE;
#X connect 0 0 1 0;
#X connect 1 0 31 0;
#X connect 1 1 87 0;
#X connect 1 2 48 0;
#X connect 1 3 65 0;
#X connect 2 0 3 0;
#X connect 3 0 32 0;
#X connect 3 0 47 0;
#X connect 3 0 64 0;
#X connect 4 0 5 0;
#X connect 5 0 16 0;
#X connect 5 0 80 0;
#X connect 6 0 7 1;
#X connect 7 0 8 0;
#X connect 8 0 11 0;
#X connect 9 0 12 0;
#X connect 10 0 75 0;
#X connect 11 0 9 0;
#X connect 11 1 9 1;
#X connect 11 1 14 1;
#X connect 12 0 15 0;
#X connect 12 1 13 0;
#X connect 13 0 10 0;
#X connect 14 0 10 0;
#X connect 15 0 14 0;
#X connect 16 0 7 0;
#X connect 16 1 6 0;
#X connect 16 2 15 1;
#X connect 17 0 18 0;
#X connect 18 0 29 0;
#X connect 18 0 81 0;
#X connect 19 0 20 1;
#X connect 20 0 21 0;
#X connect 21 0 24 0;
#X connect 22 0 25 0;
#X connect 23 0 74 0;
#X connect 24 0 22 0;
#X connect 24 1 22 1;
#X connect 24 1 27 1;
#X connect 25 0 28 0;
#X connect 25 1 26 0;
#X connect 26 0 23 0;
#X connect 27 0 23 0;
#X connect 28 0 27 0;
#X connect 29 0 20 0;
#X connect 29 1 19 0;
#X connect 29 2 28 1;
#X connect 30 0 90 0;
#X connect 31 0 90 0;
#X connect 32 0 88 0;
#X connect 33 0 76 1;
#X connect 34 0 35 0;
#X connect 35 0 46 0;
#X connect 35 0 82 0;
#X connect 36 0 37 1;
#X connect 37 0 38 0;
#X connect 38 0 41 0;
#X connect 39 0 42 0;
#X connect 40 0 73 0;
#X connect 41 0 39 0;
#X connect 41 1 39 1;
#X connect 41 1 44 1;
#X connect 42 0 45 0;
#X connect 42 1 43 0;
#X connect 43 0 40 0;
#X connect 44 0 40 0;
#X connect 45 0 44 0;
#X connect 46 0 37 0;
#X connect 46 1 36 0;
#X connect 46 2 45 1;
#X connect 47 0 50 0;
#X connect 48 0 50 0;
#X connect 49 0 77 1;
#X connect 50 0 49 0;
#X connect 51 0 52 0;
#X connect 52 0 63 0;
#X connect 52 0 83 0;
#X connect 53 0 54 1;
#X connect 54 0 55 0;
#X connect 55 0 58 0;
#X connect 56 0 59 0;
#X connect 57 0 72 0;
#X connect 58 0 56 0;
#X connect 58 1 56 1;
#X connect 58 1 61 1;
#X connect 59 0 62 0;
#X connect 59 1 60 0;
#X connect 60 0 57 0;
#X connect 61 0 57 0;
#X connect 62 0 61 0;
#X connect 63 0 54 0;
#X connect 63 1 53 0;
#X connect 63 2 62 1;
#X connect 64 0 86 0;
#X connect 65 0 86 0;
#X connect 66 0 78 1;
#X connect 67 0 79 1;
#X connect 72 0 78 0;
#X connect 73 0 77 0;
#X connect 74 0 76 0;
#X connect 75 0 79 0;
#X connect 76 0 92 0;
#X connect 77 0 93 0;
#X connect 78 0 94 0;
#X connect 79 0 91 0;
#X connect 84 0 34 0;
#X connect 85 0 51 0;
#X connect 86 0 66 0;
#X connect 87 0 88 0;
#X connect 88 0 33 0;
#X connect 89 0 17 0;
#X connect 90 0 67 0;
#X connect 95 0 96 0;
#X connect 97 0 4 0;
#X restore 294 523 pd soundfilesinbetween;
#X obj 272 616 dac~ 1;
#N canvas 111 23 631 660 granular 0;
#X obj 318 308 soundfiler;
#X obj 339 91 f \$0;
#X obj 349 42 bng 15 250 50 0 empty empty empty 17 7 0 10 -262144 -1
-1;
#X obj 349 20 loadbang;
#X floatatom 318 333 10 0 0 0 - - -;
#X obj 339 115 pack f s;
#X obj 349 65 t b b;
#X obj 318 419 table \$0-SAMPLE 100;
#X obj 137 424 tabread~ \$0-SAMPLE;
#X obj 318 394 s \$0-SAMPCOUNT;
#X obj 227 284 r \$0-SAMPCOUNT;
#X obj 45 344 *~;
#X obj 98 273 r \$0-SAMPCOUNT;
#X obj 136 395 +~;
#X obj 98 321 * 0.1;
#X obj 508 354 samplerate~;
#X obj 466 378 /;
#X obj 508 313 loadbang;
#X obj 508 335 bng 15 250 50 0 empty empty empty 17 7 0 10 -262144
-1 -1;
#X obj 466 400 * 1000;
#X obj 466 423 s \$0-SAMPDUR;
#X floatatom 15 251 5 0 0 0 - - -;
#X obj 105 298 t b f;
#X floatatom 105 251 5 0 0 0 - - -;
#X obj 15 273 triangle~ 10;
#X obj 212 308 *;
#X obj 340 233 spigot;
#X obj 385 233 spigot;
#X obj 429 141 sel 0 1;
#X obj 373 213 tgl 15 0 empty empty empty 17 7 0 10 -262144 -1 -1 0
1;
#X obj 418 213 tgl 15 0 empty empty empty 17 7 0 10 -262144 -1 -1 0
1;
#X msg 364 189 0;
#X msg 392 189 1;
#X msg 429 189 0;
#X msg 457 189 1;
#X msg 45 135 60;
#X obj 65 88 random 4;
#X obj 65 111 sel 0 1 2 3;
#X msg 75 135 120;
#X msg 107 135 240;
#X msg 139 135 30;
#X obj 65 68 bng 15 250 50 0 empty empty empty 17 7 0 10 -262144 -1
-1;
#X obj 429 116 random 2;
#X obj 48 8 receive send4;
#X obj 49 41 sel 0 1 2 3;
#X obj 15 208 r send1;
#X obj 117 214 r send2;
#X obj 212 261 r send3;
#X msg 318 261 read -resize sounds/AR/granvoice.mp3 \$1-SAMPLE;
#X msg 207 476 0;
#X msg 244 476 1;
#X obj 187 519 *~;
#X msg 329 282 read -resize sounds/AR/car.mp3 \$1-SAMPLE;
#X obj 183 583 outlet~;
#X connect 0 0 4 0;
#X connect 1 0 5 0;
#X connect 2 0 6 0;
#X connect 3 0 2 0;
#X connect 4 0 9 0;
#X connect 4 0 16 0;
#X connect 5 0 26 0;
#X connect 5 0 27 0;
#X connect 6 0 1 0;
#X connect 6 1 42 0;
#X connect 6 1 5 1;
#X connect 8 0 51 0;
#X connect 10 0 25 1;
#X connect 11 0 13 0;
#X connect 12 0 14 0;
#X connect 13 0 8 0;
#X connect 14 0 11 1;
#X connect 15 0 16 1;
#X connect 16 0 19 0;
#X connect 17 0 18 0;
#X connect 18 0 15 0;
#X connect 19 0 20 0;
#X connect 21 0 24 0;
#X connect 22 0 14 0;
#X connect 22 1 14 1;
#X connect 23 0 22 0;
#X connect 24 0 11 0;
#X connect 25 0 13 1;
#X connect 26 0 48 0;
#X connect 27 0 52 0;
#X connect 28 0 32 0;
#X connect 28 0 33 0;
#X connect 28 1 31 0;
#X connect 28 1 34 0;
#X connect 29 0 26 1;
#X connect 30 0 27 1;
#X connect 31 0 29 0;
#X connect 32 0 29 0;
#X connect 33 0 30 0;
#X connect 34 0 30 0;
#X connect 35 0 21 0;
#X connect 36 0 37 0;
#X connect 37 0 35 0;
#X connect 37 1 38 0;
#X connect 37 2 39 0;
#X connect 37 3 40 0;
#X connect 38 0 21 0;
#X connect 39 0 21 0;
#X connect 40 0 21 0;
#X connect 41 0 36 0;
#X connect 42 0 28 0;
#X connect 43 0 44 0;
#X connect 44 0 49 0;
#X connect 44 1 41 0;
#X connect 44 1 50 0;
#X connect 44 2 50 0;
#X connect 45 0 21 0;
#X connect 46 0 23 0;
#X connect 47 0 25 0;
#X connect 48 0 0 0;
#X connect 49 0 51 1;
#X connect 50 0 51 1;
#X connect 51 0 53 0;
#X connect 52 0 0 0;
#X restore 250 480 pd granular;
#N canvas 106 23 1015 669 percussion 0;
#X obj 9 285 noise~;
#X obj 442 362 bp~ 0 100;
#X obj 8 535 *~;
#X obj 40 518 line~;
#X obj 42 465 sel 0 1;
#X obj 38 420 f;
#X obj 72 420 + 1;
#X obj 42 443 mod 2;
#X msg 39 492 1 50;
#X msg 85 492 0 450;
#X obj 353 88 f;
#X obj 387 88 + 1;
#X obj 357 111 mod 8;
#X obj 357 133 sel 0 1 2 3 4 5 6 7;
#X msg 352 36 bang;
#X obj 136 531 *~;
#X obj 168 514 line~;
#X obj 170 461 sel 0 1;
#X obj 166 416 f;
#X obj 200 416 + 1;
#X obj 170 439 mod 2;
#X msg 167 488 1 50;
#X msg 186 234 4808;
#X obj 161 133 metro 100;
#X obj 352 60 metro 200;
#X obj 155 201 sel 0 1;
#X msg 161 111 bang;
#X obj 158 156 f;
#X obj 192 156 + 1;
#X obj 162 179 mod 2;
#X obj 290 133 metro 100;
#X obj 284 201 sel 0 1;
#X msg 290 111 bang;
#X obj 287 156 f;
#X obj 321 156 + 1;
#X obj 291 179 mod 2;
#X obj 263 527 *~;
#X obj 295 510 line~;
#X obj 297 457 sel 0 1;
#X obj 293 412 f;
#X obj 327 412 + 1;
#X obj 297 435 mod 2;
#X msg 294 484 1 50;
#X msg 340 484 0 450;
#X msg 280 234 40;
#X msg 315 234 6000;
#X msg 213 488 0 50;
#X msg 151 234 0;
#X obj 257 19 loadbang;
#X obj 45 140 metro 100;
#X obj 39 208 sel 0 1;
#X msg 45 118 bang;
#X obj 42 163 f;
#X obj 76 163 + 1;
#X obj 46 186 mod 2;
#X msg 35 241 0;
#X obj 8 363 bp~ 0 50;
#X obj 136 363 bp~ 0 50;
#X obj 264 361 bp~ 0 50;
#X msg 70 241 8000;
#X obj 413 530 *~;
#X obj 445 513 line~;
#X obj 447 460 sel 0 1;
#X obj 443 415 f;
#X obj 477 415 + 1;
#X obj 447 438 mod 2;
#X msg 444 487 1 50;
#X msg 490 487 0 450;
#X obj 290 589 *~ 0.2;
#X obj 500 135 metro 100;
#X obj 494 203 sel 0 1;
#X msg 500 113 bang;
#X obj 497 158 f;
#X obj 531 158 + 1;
#X obj 501 181 mod 2;
#X msg 490 236 40;
#X msg 525 236 6000;
#X obj 663 541 line~;
#X obj 663 517 pack 0 100;
#X obj 767 671 line~;
#X obj 767 647 pack 0 100;
#X obj 767 623 * 0.01;
#X obj 746 697 *~;
#X obj 588 559 *~;
#X obj 588 487 / 100;
#X obj 588 535 +~ 1;
#X obj 588 511 osc~ 0;
#X obj 588 583 +~ 1.46;
#X obj 746 745 delwrite~ percus 1000;
#X obj 588 607 vd~ percus 2000;
#X obj 290 624 +~;
#X obj 588 457 r /percussion-sequence/freq;
#X obj 663 398 r /percussion-sequence/sec;
#X obj 282 661 hip~ 200;
#X obj 150 687 *~;
#X msg 166 652 0;
#X msg 198 653 1;
#X obj 128 722 outlet~;
#X obj 18 599 receive send4;
#X obj 17 624 sel 0 1 2 3;
#X obj 38 5 r send1;
#X obj 38 26 + 1;
#X obj 767 556 r send2;
#X obj 767 581 + 1;
#X obj 767 602 * 25;
#X obj 38 49 + 100;
#X obj 38 70 * 100;
#X connect 0 0 56 0;
#X connect 0 0 57 0;
#X connect 0 0 58 0;
#X connect 0 0 1 0;
#X connect 1 0 60 0;
#X connect 2 0 68 0;
#X connect 3 0 2 1;
#X connect 4 0 8 0;
#X connect 4 1 9 0;
#X connect 5 0 6 0;
#X connect 5 0 7 0;
#X connect 6 0 5 1;
#X connect 7 0 4 0;
#X connect 8 0 3 0;
#X connect 9 0 3 0;
#X connect 10 0 11 0;
#X connect 10 0 12 0;
#X connect 11 0 10 1;
#X connect 12 0 13 0;
#X connect 13 0 5 0;
#X connect 13 1 18 0;
#X connect 13 2 39 0;
#X connect 13 3 63 0;
#X connect 14 0 24 0;
#X connect 15 0 68 0;
#X connect 16 0 15 1;
#X connect 17 0 21 0;
#X connect 17 1 46 0;
#X connect 18 0 19 0;
#X connect 18 0 20 0;
#X connect 19 0 18 1;
#X connect 20 0 17 0;
#X connect 21 0 16 0;
#X connect 22 0 57 1;
#X connect 23 0 27 0;
#X connect 24 0 10 0;
#X connect 25 0 47 0;
#X connect 25 1 22 0;
#X connect 26 0 23 0;
#X connect 27 0 28 0;
#X connect 27 0 29 0;
#X connect 28 0 27 1;
#X connect 29 0 25 0;
#X connect 30 0 33 0;
#X connect 31 0 44 0;
#X connect 31 1 45 0;
#X connect 32 0 30 0;
#X connect 33 0 34 0;
#X connect 33 0 35 0;
#X connect 34 0 33 1;
#X connect 35 0 31 0;
#X connect 36 0 68 0;
#X connect 37 0 36 1;
#X connect 38 0 42 0;
#X connect 38 1 43 0;
#X connect 39 0 40 0;
#X connect 39 0 41 0;
#X connect 40 0 39 1;
#X connect 41 0 38 0;
#X connect 42 0 37 0;
#X connect 43 0 37 0;
#X connect 44 0 58 1;
#X connect 45 0 58 1;
#X connect 46 0 16 0;
#X connect 47 0 57 1;
#X connect 48 0 32 0;
#X connect 48 0 14 0;
#X connect 48 0 51 0;
#X connect 48 0 71 0;
#X connect 48 0 26 0;
#X connect 49 0 52 0;
#X connect 50 0 55 0;
#X connect 50 1 59 0;
#X connect 51 0 49 0;
#X connect 52 0 53 0;
#X connect 52 0 54 0;
#X connect 53 0 52 1;
#X connect 54 0 50 0;
#X connect 55 0 56 1;
#X connect 56 0 2 0;
#X connect 57 0 15 0;
#X connect 58 0 36 0;
#X connect 59 0 56 1;
#X connect 60 0 68 0;
#X connect 61 0 60 1;
#X connect 62 0 66 0;
#X connect 62 1 67 0;
#X connect 63 0 64 0;
#X connect 63 0 65 0;
#X connect 64 0 63 1;
#X connect 65 0 62 0;
#X connect 66 0 61 0;
#X connect 67 0 61 0;
#X connect 68 0 90 0;
#X connect 69 0 72 0;
#X connect 70 0 75 0;
#X connect 70 1 76 0;
#X connect 71 0 69 0;
#X connect 72 0 73 0;
#X connect 72 0 74 0;
#X connect 73 0 72 1;
#X connect 74 0 70 0;
#X connect 75 0 1 1;
#X connect 76 0 1 1;
#X connect 77 0 83 1;
#X connect 78 0 77 0;
#X connect 79 0 82 1;
#X connect 80 0 79 0;
#X connect 81 0 80 0;
#X connect 82 0 88 0;
#X connect 83 0 87 0;
#X connect 84 0 86 0;
#X connect 85 0 83 0;
#X connect 86 0 85 0;
#X connect 87 0 89 0;
#X connect 89 0 90 1;
#X connect 90 0 82 0;
#X connect 90 0 93 0;
#X connect 91 0 84 0;
#X connect 92 0 78 0;
#X connect 93 0 94 0;
#X connect 94 0 97 0;
#X connect 95 0 94 1;
#X connect 96 0 94 1;
#X connect 98 0 99 0;
#X connect 99 0 95 0;
#X connect 99 1 95 0;
#X connect 99 2 96 0;
#X connect 100 0 101 0;
#X connect 101 0 105 0;
#X connect 102 0 103 0;
#X connect 103 0 104 0;
#X connect 104 0 81 0;
#X connect 105 0 106 0;
#X connect 106 0 49 1;
#X connect 106 0 23 1;
#X connect 106 0 30 1;
#X connect 106 0 69 1;
#X restore 216 414 pd percussion;
#X connect 0 0 2 0;
#X connect 0 1 2 0;
#X connect 0 2 2 0;
#X connect 1 0 2 0;
#X connect 1 1 2 0;
#X connect 1 2 2 0;
#X connect 1 3 2 0;
#X connect 3 0 2 0;
#X connect 4 0 2 0;
