#N canvas 186 23 929 672 10;
#X obj 29 188 soundfiler;
#X floatatom 29 214 20 0 0 0 - - -;
#X obj 184 264 samplerate~;
#X obj 121 288 /;
#X obj 121 311 * 1000;
#X obj 121 364 metro;
#X obj 121 477 line~;
#X obj 121 336 trigger bang float;
#X obj 121 390 trigger bang bang;
#X msg 220 416 0;
#X obj 100 442 pack float float;
#X obj 121 416 float;
#X obj 29 134 loadbang;
#X obj 29 240 print LOADED;
#X obj 114 240 trigger float bang float;
#X obj 226 621 dac~;
#X obj 313 188 soundfiler;
#X obj 108 187 table ONE 100;
#X obj 121 501 tabread~ ONE;
#X obj 392 187 table TWO 100;
#X msg 313 160 read -resize sounds/walk.wav TWO;
#X floatatom 314 222 20 0 0 0 - - -;
#X obj 314 251 print LOADED2;
#X obj 474 274 samplerate~;
#X obj 411 298 /;
#X obj 411 321 * 1000;
#X obj 411 374 metro;
#X obj 411 487 line~;
#X obj 411 346 trigger bang float;
#X obj 411 400 trigger bang bang;
#X msg 530 426 0;
#X obj 390 452 pack float float;
#X obj 411 426 float;
#X obj 404 250 trigger float bang float;
#X obj 411 511 tabread~ TWO;
#X obj 255 468 sel 0 1 2 3;
#X obj 255 439 receive send4;
#X msg 137 525 0;
#X msg 170 525 1;
#X obj 121 553 *~ 1;
#X msg 430 535 0;
#X msg 463 535 1;
#X obj 411 559 *~ 1;
#X obj 613 180 receive send1;
#X floatatom 770 259 5 0 0 0 - - -;
#X obj 725 230 moses 0;
#X floatatom 721 259 5 0 0 0 - - -;
#X floatatom 817 308 5 0 0 0 - - -;
#X floatatom 755 325 5 0 0 0 - - -;
#X floatatom 748 380 5 0 0 0 - - -;
#X obj 623 459 *~;
#X obj 567 381 osc~ 440;
#X obj 753 444 line~;
#X msg 753 420 \$1 10;
#X obj 613 410 osc~ 220;
#X obj 770 284 moses 0.1;
#X obj 748 353 * 10;
#X msg 29 160 read -resize sounds/OldDockLayer.wav ONE;
#X connect 0 0 1 0;
#X connect 1 0 13 0;
#X connect 1 0 14 0;
#X connect 2 0 3 1;
#X connect 3 0 4 0;
#X connect 4 0 7 0;
#X connect 5 0 8 0;
#X connect 6 0 18 0;
#X connect 7 0 5 0;
#X connect 7 1 5 1;
#X connect 7 1 10 1;
#X connect 8 0 11 0;
#X connect 8 1 9 0;
#X connect 9 0 6 0;
#X connect 10 0 6 0;
#X connect 11 0 10 0;
#X connect 12 0 57 0;
#X connect 12 0 20 0;
#X connect 12 0 40 0;
#X connect 14 0 3 0;
#X connect 14 1 2 0;
#X connect 14 2 11 1;
#X connect 16 0 21 0;
#X connect 18 0 39 0;
#X connect 20 0 16 0;
#X connect 21 0 22 0;
#X connect 21 0 33 0;
#X connect 23 0 24 1;
#X connect 24 0 25 0;
#X connect 25 0 28 0;
#X connect 26 0 29 0;
#X connect 27 0 34 0;
#X connect 28 0 26 0;
#X connect 28 1 26 1;
#X connect 28 1 31 1;
#X connect 29 0 32 0;
#X connect 29 1 30 0;
#X connect 30 0 27 0;
#X connect 31 0 27 0;
#X connect 32 0 31 0;
#X connect 33 0 24 0;
#X connect 33 1 23 0;
#X connect 33 2 32 1;
#X connect 34 0 42 0;
#X connect 35 0 40 0;
#X connect 35 0 38 0;
#X connect 35 1 37 0;
#X connect 35 1 41 0;
#X connect 36 0 35 0;
#X connect 37 0 39 1;
#X connect 38 0 39 1;
#X connect 39 0 15 0;
#X connect 39 0 15 1;
#X connect 40 0 42 1;
#X connect 41 0 42 1;
#X connect 42 0 15 1;
#X connect 42 0 15 0;
#X connect 43 0 45 0;
#X connect 44 0 55 0;
#X connect 45 0 46 0;
#X connect 45 1 44 0;
#X connect 48 0 56 0;
#X connect 49 0 53 0;
#X connect 50 0 15 0;
#X connect 50 0 15 1;
#X connect 51 0 50 0;
#X connect 52 0 50 1;
#X connect 53 0 52 0;
#X connect 54 0 50 0;
#X connect 55 0 48 0;
#X connect 55 1 47 0;
#X connect 56 0 49 0;
#X connect 57 0 0 0;
