#N canvas 636 193 321 309 10;
#X obj 120 197 osc~ 440;
#X obj 113 248 dac~;
#X obj 120 171 * 240;
#X obj 120 113 random 4;
#X obj 120 141 + 1;
#X obj 120 89 loadbang;
#X connect 0 0 1 0;
#X connect 0 0 1 1;
#X connect 2 0 0 0;
#X connect 3 0 4 0;
#X connect 4 0 2 0;
#X connect 5 0 3 0;
